<svg xmlns="http://www.w3.org/2000/svg" viewBox="0 0 64 64" id="medium">
  <path fill="#020202" fill-rule="evenodd" d="m60,12c0-4.42-3.58-8-8-8H12C7.58,4,4,7.58,4,12v40c0,4.42,3.58,8,8,8h40c4.42,0,8-3.58,8-8V12h0Z"></path>
  <path fill="#fff" fill-rule="evenodd" d="m24.13,21.5c5.79,0,10.5,4.7,10.5,10.5s-4.71,10.5-10.5,10.5-10.5-4.71-10.5-10.5,4.7-10.5,10.5-10.5h0Zm16.5.5c2.76,0,5,4.48,5,10s-2.24,10-5,10-5-4.48-5-10,2.24-10,5-10h0Zm7.87,1c1.03,0,1.87,4.03,1.87,9s-.84,9-1.87,9-1.87-4.03-1.87-9,.84-9,1.87-9h0Z"></path>
</svg>
